<svg width="247" height="50" viewBox="0 0 247 50" fill="none" xmlns="http://www.w3.org/2000/svg">
<path d="M58.4 27C58.4 30.456 57.752 33.528 56.456 36.216C55.16 38.904 53.336 41.16 50.984 42.984C48.68 44.856 45.992 46.248 42.92 47.16C39.896 48.12 36.656 48.6 33.2 48.6C28.544 48.6 24.296 47.76 20.456 46.08C16.664 44.4 13.64 41.952 11.384 38.736C9.128 35.568 8 31.656 8 27V9.792C8 8.544 8.408 7.488 9.224 6.624C10.088 5.808 11.144 5.4 12.392 5.4L54.008 5.4C55.256 5.4 56.288 5.808 57.104 6.624C57.968 7.488 58.4 8.544 58.4 9.792V27ZM16.28 26.28C16.28 29.304 17.048 31.776 18.584 33.696C20.168 35.616 22.232 37.008 24.776 37.872C27.368 38.784 30.176 39.24 33.2 39.24C35.456 39.24 37.592 38.976 39.608 38.448C41.672 37.968 43.472 37.2 45.008 36.144C46.592 35.088 47.84 33.744 48.752 32.112C49.664 30.48 50.12 28.536 50.12 26.28V13.68L50.768 14.4L15.488 14.4L16.28 13.968V26.28Z" fill="#55BD91"/>
<path d="M76.5001 34.25C75.3334 34.25 74.2834 34.1083 73.3501 33.825C72.4168 33.525 71.5251 33.0083 70.6751 32.275C70.4584 32.0917 70.2918 31.8833 70.1751 31.65C70.0584 31.4167 70.0001 31.1833 70.0001 30.95C70.0001 30.5667 70.1334 30.2333 70.4001 29.95C70.6834 29.65 71.0334 29.5 71.4501 29.5C71.7668 29.5 72.0501 29.6 72.3001 29.8C72.9334 30.3167 73.5584 30.7083 74.1751 30.975C74.8084 31.2417 75.5834 31.375 76.5001 31.375C77.1168 31.375 77.6834 31.2833 78.2001 31.1C78.7168 30.9 79.1334 30.6417 79.4501 30.325C79.7668 29.9917 79.9251 29.6167 79.9251 29.2C79.9251 28.7 79.7751 28.275 79.4751 27.925C79.1751 27.575 78.7168 27.2833 78.1001 27.05C77.4834 26.8 76.7001 26.6083 75.7501 26.475C74.8501 26.3417 74.0584 26.1417 73.3751 25.875C72.6918 25.5917 72.1168 25.2417 71.6501 24.825C71.2001 24.3917 70.8584 23.8917 70.6251 23.325C70.3918 22.7417 70.2751 22.0917 70.2751 21.375C70.2751 20.2917 70.5501 19.3667 71.1001 18.6C71.6668 17.8333 72.4251 17.25 73.3751 16.85C74.3251 16.45 75.3751 16.25 76.5251 16.25C77.6084 16.25 78.6084 16.4167 79.5251 16.75C80.4584 17.0667 81.2168 17.475 81.8001 17.975C82.2834 18.3583 82.5251 18.8 82.5251 19.3C82.5251 19.6667 82.3834 20 82.1001 20.3C81.8168 20.6 81.4834 20.75 81.1001 20.75C80.8501 20.75 80.6251 20.675 80.4251 20.525C80.1584 20.2917 79.8001 20.075 79.3501 19.875C78.9001 19.6583 78.4251 19.4833 77.9251 19.35C77.4251 19.2 76.9584 19.125 76.5251 19.125C75.8084 19.125 75.2001 19.2167 74.7001 19.4C74.2168 19.5833 73.8501 19.8333 73.6001 20.15C73.3501 20.4667 73.2251 20.8333 73.2251 21.25C73.2251 21.75 73.3668 22.1667 73.6501 22.5C73.9501 22.8167 74.3751 23.075 74.9251 23.275C75.4751 23.4583 76.1334 23.625 76.9001 23.775C77.9001 23.9583 78.7751 24.175 79.5251 24.425C80.2918 24.675 80.9251 25 81.4251 25.4C81.9251 25.7833 82.3001 26.275 82.5501 26.875C82.8001 27.4583 82.9251 28.175 82.9251 29.025C82.9251 30.1083 82.6251 31.0417 82.0251 31.825C81.4251 32.6083 80.6334 33.2083 79.6501 33.625C78.6834 34.0417 77.6334 34.25 76.5001 34.25ZM91.8421 34.25C90.4254 34.25 89.1921 33.9583 88.1421 33.375C87.1088 32.775 86.3088 31.9667 85.7421 30.95C85.1921 29.9333 84.9171 28.7833 84.9171 27.5C84.9171 26 85.2171 24.725 85.8171 23.675C86.4338 22.6083 87.2338 21.7917 88.2171 21.225C89.2004 20.6583 90.2421 20.375 91.3421 20.375C92.1921 20.375 92.9921 20.55 93.7421 20.9C94.5088 21.25 95.1838 21.7333 95.7671 22.35C96.3504 22.95 96.8088 23.65 97.1421 24.45C97.4921 25.25 97.6671 26.1 97.6671 27C97.6504 27.4 97.4921 27.725 97.1921 27.975C96.8921 28.225 96.5421 28.35 96.1421 28.35H86.5921L85.8421 25.85H95.0171L94.4671 26.35V25.675C94.4338 25.1917 94.2588 24.7583 93.9421 24.375C93.6421 23.9917 93.2588 23.6917 92.7921 23.475C92.3421 23.2417 91.8588 23.125 91.3421 23.125C90.8421 23.125 90.3754 23.1917 89.9421 23.325C89.5088 23.4583 89.1338 23.6833 88.8171 24C88.5004 24.3167 88.2504 24.7417 88.0671 25.275C87.8838 25.8083 87.7921 26.4833 87.7921 27.3C87.7921 28.2 87.9754 28.9667 88.3421 29.6C88.7254 30.2167 89.2088 30.6917 89.7921 31.025C90.3921 31.3417 91.0254 31.5 91.6921 31.5C92.3088 31.5 92.8004 31.45 93.1671 31.35C93.5338 31.25 93.8254 31.1333 94.0421 31C94.2754 30.85 94.4838 30.725 94.6671 30.625C94.9671 30.475 95.2504 30.4 95.5171 30.4C95.8838 30.4 96.1838 30.525 96.4171 30.775C96.6671 31.025 96.7921 31.3167 96.7921 31.65C96.7921 32.1 96.5588 32.5083 96.0921 32.875C95.6588 33.2417 95.0504 33.5667 94.2671 33.85C93.4838 34.1167 92.6754 34.25 91.8421 34.25ZM101.788 34C101.355 34 100.997 33.8583 100.713 33.575C100.43 33.275 100.288 32.9083 100.288 32.475V22.15C100.288 21.7167 100.43 21.3583 100.713 21.075C100.997 20.775 101.355 20.625 101.788 20.625C102.222 20.625 102.58 20.775 102.863 21.075C103.147 21.3583 103.288 21.7167 103.288 22.15V24.5L103.113 22.825C103.297 22.425 103.53 22.075 103.813 21.775C104.113 21.4583 104.447 21.2 104.813 21C105.18 20.7833 105.572 20.625 105.988 20.525C106.405 20.425 106.822 20.375 107.238 20.375C107.738 20.375 108.155 20.5167 108.488 20.8C108.838 21.0833 109.013 21.4167 109.013 21.8C109.013 22.35 108.872 22.75 108.588 23C108.305 23.2333 107.997 23.35 107.663 23.35C107.347 23.35 107.055 23.2917 106.788 23.175C106.538 23.0583 106.247 23 105.913 23C105.613 23 105.305 23.075 104.988 23.225C104.688 23.3583 104.405 23.575 104.138 23.875C103.888 24.175 103.68 24.55 103.513 25C103.363 25.4333 103.288 25.95 103.288 26.55V32.475C103.288 32.9083 103.147 33.275 102.863 33.575C102.58 33.8583 102.222 34 101.788 34ZM112.973 20.625C113.29 20.625 113.581 20.7083 113.848 20.875C114.115 21.025 114.315 21.2583 114.448 21.575L118.123 29.975L117.573 30.225L121.323 21.6C121.606 20.9333 122.048 20.6167 122.648 20.65C123.065 20.65 123.398 20.7833 123.648 21.05C123.915 21.3 124.048 21.6167 124.048 22C124.048 22.1167 124.023 22.2417 123.973 22.375C123.94 22.5083 123.898 22.6333 123.848 22.75L119.173 33.05C118.906 33.65 118.481 33.9667 117.898 34C117.581 34.05 117.273 33.9917 116.973 33.825C116.69 33.6583 116.473 33.4 116.323 33.05L111.673 22.75C111.64 22.6667 111.598 22.5583 111.548 22.425C111.515 22.2917 111.498 22.1333 111.498 21.95C111.498 21.65 111.631 21.3583 111.898 21.075C112.165 20.775 112.523 20.625 112.973 20.625ZM129.236 32.475C129.236 32.9083 129.095 33.275 128.811 33.575C128.528 33.8583 128.17 34 127.736 34C127.303 34 126.945 33.8583 126.661 33.575C126.378 33.275 126.236 32.9083 126.236 32.475V22.15C126.236 21.7167 126.378 21.3583 126.661 21.075C126.945 20.775 127.303 20.625 127.736 20.625C128.17 20.625 128.528 20.775 128.811 21.075C129.095 21.3583 129.236 21.7167 129.236 22.15V32.475ZM127.711 19C127.145 19 126.745 18.9083 126.511 18.725C126.278 18.5417 126.161 18.2167 126.161 17.75V17.275C126.161 16.7917 126.286 16.4667 126.536 16.3C126.803 16.1167 127.203 16.025 127.736 16.025C128.32 16.025 128.728 16.1167 128.961 16.3C129.195 16.4833 129.311 16.8083 129.311 17.275V17.75C129.311 18.2333 129.186 18.5667 128.936 18.75C128.686 18.9167 128.278 19 127.711 19ZM138.269 20.375C139.219 20.375 140.044 20.475 140.744 20.675C141.461 20.875 142.011 21.1583 142.394 21.525C142.794 21.875 142.994 22.3 142.994 22.8C142.994 23.1333 142.894 23.45 142.694 23.75C142.494 24.0333 142.203 24.175 141.819 24.175C141.553 24.175 141.328 24.1417 141.144 24.075C140.978 23.9917 140.828 23.8917 140.694 23.775C140.561 23.6583 140.403 23.55 140.219 23.45C140.053 23.35 139.794 23.275 139.444 23.225C139.111 23.1583 138.861 23.125 138.694 23.125C137.844 23.125 137.119 23.3083 136.519 23.675C135.936 24.0417 135.486 24.5417 135.169 25.175C134.853 25.7917 134.694 26.5083 134.694 27.325C134.694 28.125 134.853 28.8417 135.169 29.475C135.503 30.0917 135.953 30.5833 136.519 30.95C137.103 31.3167 137.769 31.5 138.519 31.5C138.936 31.5 139.294 31.475 139.594 31.425C139.894 31.375 140.144 31.3 140.344 31.2C140.578 31.0667 140.786 30.925 140.969 30.775C141.153 30.625 141.428 30.55 141.794 30.55C142.228 30.55 142.561 30.6917 142.794 30.975C143.028 31.2417 143.144 31.575 143.144 31.975C143.144 32.3917 142.911 32.775 142.444 33.125C141.978 33.4583 141.361 33.7333 140.594 33.95C139.844 34.15 139.028 34.25 138.144 34.25C136.828 34.25 135.686 33.95 134.719 33.35C133.753 32.7333 133.003 31.9 132.469 30.85C131.953 29.8 131.694 28.625 131.694 27.325C131.694 25.9583 131.969 24.7583 132.519 23.725C133.086 22.675 133.861 21.8583 134.844 21.275C135.844 20.675 136.986 20.375 138.269 20.375ZM151.608 34.25C150.191 34.25 148.958 33.9583 147.908 33.375C146.874 32.775 146.074 31.9667 145.508 30.95C144.958 29.9333 144.683 28.7833 144.683 27.5C144.683 26 144.983 24.725 145.583 23.675C146.199 22.6083 146.999 21.7917 147.983 21.225C148.966 20.6583 150.008 20.375 151.108 20.375C151.958 20.375 152.758 20.55 153.508 20.9C154.274 21.25 154.949 21.7333 155.533 22.35C156.116 22.95 156.574 23.65 156.908 24.45C157.258 25.25 157.433 26.1 157.433 27C157.416 27.4 157.258 27.725 156.958 27.975C156.658 28.225 156.308 28.35 155.908 28.35H146.358L145.608 25.85H154.783L154.233 26.35V25.675C154.199 25.1917 154.024 24.7583 153.708 24.375C153.408 23.9917 153.024 23.6917 152.558 23.475C152.108 23.2417 151.624 23.125 151.108 23.125C150.608 23.125 150.141 23.1917 149.708 23.325C149.274 23.4583 148.899 23.6833 148.583 24C148.266 24.3167 148.016 24.7417 147.833 25.275C147.649 25.8083 147.558 26.4833 147.558 27.3C147.558 28.2 147.741 28.9667 148.108 29.6C148.491 30.2167 148.974 30.6917 149.558 31.025C150.158 31.3417 150.791 31.5 151.458 31.5C152.074 31.5 152.566 31.45 152.933 31.35C153.299 31.25 153.591 31.1333 153.808 31C154.041 30.85 154.249 30.725 154.433 30.625C154.733 30.475 155.016 30.4 155.283 30.4C155.649 30.4 155.949 30.525 156.183 30.775C156.433 31.025 156.558 31.3167 156.558 31.65C156.558 32.1 156.324 32.5083 155.858 32.875C155.424 33.2417 154.816 33.5667 154.033 33.85C153.249 34.1167 152.441 34.25 151.608 34.25Z" fill="#485A68"/>
<path d="M174.811 16.5C176.011 16.5 177.077 16.725 178.011 17.175C178.944 17.625 179.727 18.2583 180.361 19.075C181.011 19.875 181.494 20.8083 181.811 21.875C182.144 22.925 182.311 24.05 182.311 25.25C182.311 26.8667 182.019 28.3417 181.436 29.675C180.852 30.9917 180.002 32.0417 178.886 32.825C177.786 33.6083 176.427 34 174.811 34H168.836C168.402 34 168.036 33.8583 167.736 33.575C167.452 33.275 167.311 32.9083 167.311 32.475V18.025C167.311 17.5917 167.452 17.2333 167.736 16.95C168.036 16.65 168.402 16.5 168.836 16.5H174.811ZM174.561 31.125C175.611 31.125 176.469 30.8583 177.136 30.325C177.802 29.775 178.286 29.0583 178.586 28.175C178.902 27.275 179.061 26.3 179.061 25.25C179.061 24.4667 178.969 23.725 178.786 23.025C178.619 22.3083 178.352 21.6833 177.986 21.15C177.619 20.6 177.152 20.1667 176.586 19.85C176.019 19.5333 175.344 19.375 174.561 19.375H170.186L170.436 19.15V31.4L170.286 31.125H174.561ZM191.427 34.25C190.01 34.25 188.777 33.9583 187.727 33.375C186.694 32.775 185.894 31.9667 185.327 30.95C184.777 29.9333 184.502 28.7833 184.502 27.5C184.502 26 184.802 24.725 185.402 23.675C186.019 22.6083 186.819 21.7917 187.802 21.225C188.785 20.6583 189.827 20.375 190.927 20.375C191.777 20.375 192.577 20.55 193.327 20.9C194.094 21.25 194.769 21.7333 195.352 22.35C195.935 22.95 196.394 23.65 196.727 24.45C197.077 25.25 197.252 26.1 197.252 27C197.235 27.4 197.077 27.725 196.777 27.975C196.477 28.225 196.127 28.35 195.727 28.35H186.177L185.427 25.85H194.602L194.052 26.35V25.675C194.019 25.1917 193.844 24.7583 193.527 24.375C193.227 23.9917 192.844 23.6917 192.377 23.475C191.927 23.2417 191.444 23.125 190.927 23.125C190.427 23.125 189.96 23.1917 189.527 23.325C189.094 23.4583 188.719 23.6833 188.402 24C188.085 24.3167 187.835 24.7417 187.652 25.275C187.469 25.8083 187.377 26.4833 187.377 27.3C187.377 28.2 187.56 28.9667 187.927 29.6C188.31 30.2167 188.794 30.6917 189.377 31.025C189.977 31.3417 190.61 31.5 191.277 31.5C191.894 31.5 192.385 31.45 192.752 31.35C193.119 31.25 193.41 31.1333 193.627 31C193.86 30.85 194.069 30.725 194.252 30.625C194.552 30.475 194.835 30.4 195.102 30.4C195.469 30.4 195.769 30.525 196.002 30.775C196.252 31.025 196.377 31.3167 196.377 31.65C196.377 32.1 196.144 32.5083 195.677 32.875C195.244 33.2417 194.635 33.5667 193.852 33.85C193.069 34.1167 192.26 34.25 191.427 34.25ZM207.023 20.375C208.256 20.375 209.19 20.6333 209.823 21.15C210.473 21.6667 210.915 22.3583 211.148 23.225C211.398 24.075 211.523 25.025 211.523 26.075V32.475C211.523 32.9083 211.381 33.275 211.098 33.575C210.815 33.8583 210.456 34 210.023 34C209.59 34 209.231 33.8583 208.948 33.575C208.665 33.275 208.523 32.9083 208.523 32.475V26.075C208.523 25.525 208.448 25.0333 208.298 24.6C208.165 24.15 207.915 23.7917 207.548 23.525C207.181 23.2583 206.656 23.125 205.973 23.125C205.306 23.125 204.74 23.2583 204.273 23.525C203.823 23.7917 203.473 24.15 203.223 24.6C202.99 25.0333 202.873 25.525 202.873 26.075V32.475C202.873 32.9083 202.731 33.275 202.448 33.575C202.165 33.8583 201.806 34 201.373 34C200.94 34 200.581 33.8583 200.298 33.575C200.015 33.275 199.873 32.9083 199.873 32.475V22.15C199.873 21.7167 200.015 21.3583 200.298 21.075C200.581 20.775 200.94 20.625 201.373 20.625C201.806 20.625 202.165 20.775 202.448 21.075C202.731 21.3583 202.873 21.7167 202.873 22.15V23.225L202.498 23.15C202.648 22.8667 202.865 22.5667 203.148 22.25C203.431 21.9167 203.765 21.6083 204.148 21.325C204.531 21.0417 204.965 20.8167 205.448 20.65C205.931 20.4667 206.456 20.375 207.023 20.375ZM214.916 20.875H220.841C221.241 20.875 221.574 21.0083 221.841 21.275C222.107 21.5417 222.241 21.875 222.241 22.275C222.241 22.6583 222.107 22.9833 221.841 23.25C221.574 23.5 221.241 23.625 220.841 23.625H214.916C214.516 23.625 214.182 23.4917 213.916 23.225C213.649 22.9583 213.516 22.625 213.516 22.225C213.516 21.8417 213.649 21.525 213.916 21.275C214.182 21.0083 214.516 20.875 214.916 20.875ZM217.591 17.75C218.024 17.75 218.374 17.9 218.641 18.2C218.924 18.4833 219.066 18.8417 219.066 19.275V30.4C219.066 30.6333 219.107 30.825 219.191 30.975C219.291 31.125 219.416 31.2333 219.566 31.3C219.732 31.3667 219.907 31.4 220.091 31.4C220.291 31.4 220.474 31.3667 220.641 31.3C220.807 31.2167 220.999 31.175 221.216 31.175C221.449 31.175 221.657 31.2833 221.841 31.5C222.041 31.7167 222.141 32.0167 222.141 32.4C222.141 32.8667 221.882 33.25 221.366 33.55C220.866 33.85 220.324 34 219.741 34C219.391 34 218.999 33.975 218.566 33.925C218.149 33.8583 217.749 33.7167 217.366 33.5C216.999 33.2667 216.691 32.9167 216.441 32.45C216.191 31.9833 216.066 31.3417 216.066 30.525V19.275C216.066 18.8417 216.207 18.4833 216.491 18.2C216.791 17.9 217.157 17.75 217.591 17.75ZM235.945 20.375C236.379 20.375 236.737 20.5167 237.02 20.8C237.304 21.0833 237.445 21.45 237.445 21.9V32.475C237.445 32.9083 237.304 33.275 237.02 33.575C236.737 33.8583 236.379 34 235.945 34C235.512 34 235.154 33.8583 234.87 33.575C234.587 33.275 234.445 32.9083 234.445 32.475V31.25L234.995 31.475C234.995 31.6917 234.879 31.9583 234.645 32.275C234.412 32.575 234.095 32.875 233.695 33.175C233.295 33.475 232.82 33.7333 232.27 33.95C231.737 34.15 231.154 34.25 230.52 34.25C229.37 34.25 228.329 33.9583 227.395 33.375C226.462 32.775 225.72 31.9583 225.17 30.925C224.637 29.875 224.37 28.675 224.37 27.325C224.37 25.9583 224.637 24.7583 225.17 23.725C225.72 22.675 226.454 21.8583 227.37 21.275C228.287 20.675 229.304 20.375 230.42 20.375C231.137 20.375 231.795 20.4833 232.395 20.7C232.995 20.9167 233.512 21.1917 233.945 21.525C234.395 21.8583 234.737 22.2 234.97 22.55C235.22 22.8833 235.345 23.1667 235.345 23.4L234.445 23.725V21.9C234.445 21.4667 234.587 21.1083 234.87 20.825C235.154 20.525 235.512 20.375 235.945 20.375ZM230.895 31.5C231.629 31.5 232.27 31.3167 232.82 30.95C233.37 30.5833 233.795 30.0833 234.095 29.45C234.412 28.8167 234.57 28.1083 234.57 27.325C234.57 26.525 234.412 25.8083 234.095 25.175C233.795 24.5417 233.37 24.0417 232.82 23.675C232.27 23.3083 231.629 23.125 230.895 23.125C230.179 23.125 229.545 23.3083 228.995 23.675C228.445 24.0417 228.012 24.5417 227.695 25.175C227.395 25.8083 227.245 26.525 227.245 27.325C227.245 28.1083 227.395 28.8167 227.695 29.45C228.012 30.0833 228.445 30.5833 228.995 30.95C229.545 31.3167 230.179 31.5 230.895 31.5ZM243.943 32.475C243.943 32.9083 243.793 33.275 243.493 33.575C243.21 33.8583 242.852 34 242.418 34C242.002 34 241.652 33.8583 241.368 33.575C241.085 33.275 240.943 32.9083 240.943 32.475V17.025C240.943 16.5917 241.085 16.2333 241.368 15.95C241.668 15.65 242.035 15.5 242.468 15.5C242.902 15.5 243.252 15.65 243.518 15.95C243.802 16.2333 243.943 16.5917 243.943 17.025V32.475Z" fill="#55BD91"/>
</svg>
